<svg xmlns="http://www.w3.org/2000/svg" xmlns:xlink="http://www.w3.org/1999/xlink" width="500" zoomAndPan="magnify" viewBox="0 0 375 374.999991" height="500" preserveAspectRatio="xMidYMid meet" version="1.0"><rect x="-37.5" width="450" fill="#ffffff" y="-37.499999" height="449.999989" fill-opacity="1"/><rect x="-37.5" width="450" fill="#ffffff" y="-37.499999" height="449.999989" fill-opacity="1"/><path fill="#000000" d="M 162.75 75.417969 C 161.847656 75.558594 160.503906 75.859375 159.765625 76.089844 C 158.410156 76.507812 88.386719 108.945312 87.695312 109.476562 C 87.203125 109.851562 87.144531 155.601562 87.636719 155.601562 C 87.808594 155.601562 109.332031 148.019531 135.464844 138.757812 C 161.601562 129.492188 183.0625 121.910156 183.152344 121.910156 C 183.246094 121.910156 183.320312 126.910156 183.324219 133.015625 C 183.332031 145.496094 183.476562 146.816406 185.277344 150.472656 C 186.507812 152.972656 189.140625 155.945312 191.527344 157.53125 C 195.03125 159.855469 199.820312 160.992188 203.695312 160.414062 C 205.242188 160.183594 216.199219 156.429688 240.886719 147.671875 C 260.136719 140.84375 276.660156 134.992188 277.601562 134.667969 L 279.316406 134.082031 L 279.316406 105.785156 C 279.316406 85.589844 279.222656 77.492188 278.992188 77.492188 C 278.8125 77.492188 257.3125 87.417969 231.214844 99.550781 C 205.121094 111.6875 183.664062 121.613281 183.542969 121.613281 C 183.421875 121.613281 183.316406 114.871094 183.3125 106.632812 C 183.308594 89.910156 183.25 89.257812 181.347656 85.296875 C 179.285156 80.992188 174.382812 77.023438 169.71875 75.875 C 167.304688 75.28125 164.695312 75.109375 162.75 75.417969 M 87.382812 173.53125 C 87.476562 191.167969 87.476562 191.234375 88.167969 193.164062 C 89.996094 198.289062 93.628906 201.90625 98.339844 203.300781 C 99.570312 203.664062 133.136719 208.082031 188.984375 215.230469 C 237.765625 221.472656 277.917969 226.679688 278.214844 226.796875 C 278.578125 226.941406 263.082031 232.566406 231.113281 243.898438 L 183.46875 260.78125 L 183.46875 292.589844 L 184.308594 294.960938 C 186.871094 302.21875 192.996094 306.871094 200.515625 307.277344 C 202.503906 307.382812 203.851562 307.285156 205.433594 306.910156 C 207.007812 306.539062 217.589844 301.761719 243.390625 289.765625 L 279.167969 273.132812 L 279.167969 191.820312 L 278.449219 189.636719 C 276.777344 184.523438 272.761719 180.597656 267.910156 179.324219 C 266.886719 179.054688 226.339844 173.746094 177.804688 167.523438 C 129.269531 161.300781 89.046875 156.125 88.425781 156.023438 L 87.289062 155.839844 Z M 160.8125 222.65625 C 159.664062 222.972656 142.691406 228.921875 123.097656 235.875 L 87.472656 248.515625 L 87.394531 276.910156 C 87.324219 303.863281 87.347656 305.292969 87.84375 305.128906 C 88.132812 305.039062 109.699219 295.042969 135.769531 282.921875 L 183.171875 260.878906 L 183.253906 249.753906 C 183.347656 237.050781 183.222656 235.964844 181.164062 231.851562 C 179.085938 227.703125 175.476562 224.664062 170.582031 222.9375 C 168.019531 222.035156 163.503906 221.90625 160.8125 222.65625 " fill-opacity="1" fill-rule="evenodd"/></svg>